<?xml version="1.0" encoding="UTF-8"?>
<svg width="18px" height="19px" viewBox="0 0 18 19" version="1.1" xmlns="http://www.w3.org/2000/svg" xmlns:xlink="http://www.w3.org/1999/xlink">
    <!-- Generator: Sketch 48.2 (47327) - http://www.bohemiancoding.com/sketch -->
    <title>16</title>
    <desc>Created with Sketch.</desc>
    <defs></defs>
    <g id="Artboard-Copy-26" stroke="none" stroke-width="1" fill="none" fill-rule="evenodd" transform="translate(-576.000000, -261.000000)">
        <g id="16" transform="translate(576.000000, 261.000000)" fill="#FDBC72">
            <path d="M9.63679245,17.5833333 C5.07226415,17.5833333 1.35849057,13.9383333 1.35849057,9.45833333 C1.35849057,4.97833333 5.07226415,1.33333333 9.63679245,1.33333333 C9.64188679,1.33333333 9.64630189,1.33366667 9.6510566,1.33366667 L9.6510566,0.000333333333 C9.64630189,0.000333333333 9.64188679,0 9.63679245,0 C4.3230566,0 0,4.243 0,9.45833333 C0,14.6736667 4.3230566,18.9166667 9.63679245,18.9166667 C9.64188679,18.9166667 9.64630189,18.9163333 9.6510566,18.9163333 L9.6510566,17.583 C9.64630189,17.583 9.64188679,17.5833333 9.63679245,17.5833333" id="Fill-1"></path>
            <path d="M9.63679245,14.6240333 C6.73471698,14.6240333 4.37366038,12.3067 4.37366038,9.45836667 C4.37366038,6.61003333 6.73471698,4.2927 9.63679245,4.2927 C9.64188679,4.2927 9.64630189,4.29336667 9.6510566,4.29336667 L9.6510566,2.96003333 C9.64630189,2.96003333 9.64188679,2.95936667 9.63679245,2.95936667 C5.98550943,2.95936667 3.01516981,5.8747 3.01516981,9.45836667 C3.01516981,13.0420333 5.98550943,15.9573667 9.63679245,15.9573667 C9.64188679,15.9573667 9.64630189,15.9567 9.6510566,15.9567 L9.6510566,14.6233667 C9.64630189,14.6233667 9.64188679,14.6240333 9.63679245,14.6240333" id="Fill-3"></path>
            <path d="M9.63679245,11.7555333 C8.34622642,11.7555333 7.29645283,10.7248667 7.29645283,9.4582 C7.29645283,8.19186667 8.34622642,7.1612 9.63679245,7.1612 C9.64188679,7.1612 9.64630189,7.16186667 9.6510566,7.16186667 L9.6510566,5.82853333 C9.64630189,5.82853333 9.64188679,5.82786667 9.63679245,5.82786667 C7.59735849,5.82786667 5.93796226,7.45653333 5.93796226,9.4582 C5.93796226,11.4602 7.59735849,13.0888667 9.63679245,13.0888667 C9.64188679,13.0888667 9.64630189,13.0882 9.6510566,13.0882 L9.6510566,11.7548667 C9.64630189,11.7548667 9.64188679,11.7555333 9.63679245,11.7555333" id="Fill-5"></path>
            <path d="M11.9773358,9.45833333 C11.9773358,8.19666667 10.935034,7.16966667 9.65092075,7.16166667 L9.65092075,11.755 C10.935034,11.747 11.9773358,10.72 11.9773358,9.45833333" id="Fill-7"></path>
            <path d="M16.2584491,9.45833333 C16.2584491,13.037 13.2955811,15.949 9.65109057,15.9566667 L9.65109057,17.583 C14.209166,17.5756667 17.9151283,13.9336667 17.9151283,9.45833333 C17.9151283,4.983 14.209166,1.341 9.65109057,1.33366667 L9.65109057,2.96 C13.2955811,2.96766667 16.2584491,5.87966667 16.2584491,9.45833333" id="Fill-9"></path>
            <path d="M13.3358264,9.45833333 C13.3358264,11.4556667 11.6842415,13.0803333 9.65092075,13.0883333 L9.65092075,14.6233333 C12.5465434,14.6156667 14.8997887,12.302 14.8997887,9.45833333 C14.8997887,6.61466667 12.5465434,4.301 9.65092075,4.29333333 L9.65092075,5.82833333 C11.6842415,5.83633333 13.3358264,7.461 13.3358264,9.45833333" id="Fill-12"></path>
        </g>
    </g>
</svg>