<?xml version="1.0" encoding="UTF-8"?>
<svg width="26px" height="19px" viewBox="0 0 26 19" version="1.1" xmlns="http://www.w3.org/2000/svg" xmlns:xlink="http://www.w3.org/1999/xlink">
    <!-- Generator: Sketch 48.2 (47327) - http://www.bohemiancoding.com/sketch -->
    <title>17</title>
    <desc>Created with Sketch.</desc>
    <defs></defs>
    <g id="Artboard-Copy-26" stroke="none" stroke-width="1" fill="none" fill-rule="evenodd" transform="translate(-600.000000, -262.000000)">
        <g id="17" transform="translate(600.000000, 262.000000)" fill="#45B2E8">
            <path d="M3.29322933,15.6232074 C3.29322933,16.5464667 2.556216,17.2945037 1.64656267,17.2945037 C0.737256,17.2945037 -0.000104,16.5464667 -0.000104,15.6232074 C-0.000104,14.7003 0.737256,13.9519111 1.64656267,13.9519111 C2.556216,13.9519111 3.29322933,14.7003 3.29322933,15.6232074" id="Fill-10"></path>
            <path d="M25.6823493,3.33794815 C25.6823493,4.26085556 24.9449893,5.00924444 24.0356827,5.00924444 C23.1260293,5.00924444 22.389016,4.26085556 22.389016,3.33794815 C22.389016,2.41468889 23.1260293,1.66665185 24.0356827,1.66665185 C24.9449893,1.66665185 25.6823493,2.41468889 25.6823493,3.33794815" id="Fill-7"></path>
            <path d="M15.3828827,14.2845167 C15.077816,14.5895722 14.906216,15.005813 14.906216,15.44035 L14.906216,17.1749796 C14.906216,18.0714981 14.1903493,18.7980722 13.3070427,18.7980722 L12.632776,18.7980722 C11.749816,18.7980722 11.0336027,18.0714981 11.0336027,17.1749796 L11.0336027,1.97497963 C11.0336027,1.07846111 11.749816,0.351535185 12.632776,0.351535185 L13.3070427,0.351535185 C14.1903493,0.351535185 14.906216,1.07846111 14.906216,1.97497963 L14.906216,6.32281296 C14.906216,7.77279444 16.6371227,8.4951463 17.642456,7.46457222 L19.468696,5.59166481 C19.7689093,5.28379444 20.1783227,5.11033148 20.605416,5.11033148 L20.6848027,5.11033148 C22.1172293,5.11033148 22.8275493,6.87486852 21.8041893,7.89277593 L20.2213093,9.46766481 C19.6628293,10.0232389 19.582056,10.9070907 20.030296,11.557313 L23.2619227,16.2439796 C24.0034427,17.3199426 23.2452827,18.7980722 21.9515227,18.7980722 L21.4370693,18.7980722 C20.896616,18.7980722 20.3925627,18.520813 20.0975493,18.0609426 L17.8456027,14.554387 C17.2933627,13.6941093 16.103256,13.5639241 15.3828827,14.2845167" id="Fill-4"></path>
            <path d="M10.5376613,4.86526667 C10.842728,4.56056296 11.014328,4.14397037 11.014328,3.70943333 L11.014328,1.97515556 C11.014328,1.07828519 11.7301947,0.351711111 12.6135013,0.351711111 L13.287768,0.351711111 C14.170728,0.351711111 14.8869413,1.07828519 14.8869413,1.97515556 L14.8869413,17.1748037 C14.8869413,18.0713222 14.170728,18.7982481 13.287768,18.7982481 L12.6135013,18.7982481 C11.7301947,18.7982481 11.014328,18.0713222 11.014328,17.1748037 L11.014328,12.8273222 C11.014328,11.3769889 9.28342133,10.654637 8.278088,11.6852111 L6.451848,13.5581185 C6.15163467,13.8659889 5.74222133,14.0394519 5.31547467,14.0394519 L5.23574133,14.0394519 C3.80331467,14.0394519 3.09334133,12.2749148 4.11670133,11.2570074 L5.69958133,9.68211852 C6.25771467,9.12654444 6.33883467,8.24304444 5.890248,7.59247037 L2.65862133,2.9058037 C1.91710133,1.82984074 2.67526133,0.351711111 3.969368,0.351711111 L4.48347467,0.351711111 C5.02427467,0.351711111 5.528328,0.62897037 5.82334133,1.08884074 L8.07494133,4.5953963 C8.62718133,5.45567407 9.81763467,5.58621111 10.5376613,4.86526667" id="Fill-1"></path>
        </g>
    </g>
</svg>