<?xml version="1.0" encoding="UTF-8"?>
<svg width="17px" height="19px" viewBox="0 0 17 19" version="1.1" xmlns="http://www.w3.org/2000/svg" xmlns:xlink="http://www.w3.org/1999/xlink">
    <!-- Generator: Sketch 48.2 (47327) - http://www.bohemiancoding.com/sketch -->
    <title>01</title>
    <desc>Created with Sketch.</desc>
    <defs>
        <polygon id="path-1" points="4.65083113 0.0818965517 9.20822642 0.0818965517 9.20822642 18.6724138 4.65083113 18.6724138 0.0934358491 18.6724138 0.0934358491 0.0818965517 4.65083113 0.0818965517"></polygon>
        <polygon id="path-3" points="6.32143396 0.0419637931 6.32143396 12.8158603 0.0543037736 12.8158603 0.0543037736 0.0419637931 6.32143396 0.0419637931"></polygon>
        <polygon id="path-5" points="3.75539623 0.240317241 3.75539623 7.37612759 0.248681132 7.37612759 0.248681132 0.240317241 3.75539623 0.240317241"></polygon>
    </defs>
    <g id="Artboard-Copy-26" stroke="none" stroke-width="1" fill="none" fill-rule="evenodd" transform="translate(-155.000000, -263.000000)">
        <g id="01" transform="translate(155.000000, 263.000000)">
            <g id="Group-3" transform="translate(7.698113, 0.245690)">
                <mask id="mask-2" fill="white">
                    <use xlink:href="#path-1"></use>
                </mask>
                <g id="Clip-2"></g>
                <path d="M9.19485094,17.362069 C4.88390755,17.362069 1.37645472,13.7799138 1.37645472,9.37715517 C1.37645472,4.97439655 4.88390755,1.39224138 9.19485094,1.39224138 C9.19966226,1.39224138 9.20383208,1.39256897 9.20832264,1.39256897 L9.20832264,0.0822241379 C9.20383208,0.0822241379 9.19966226,0.0818965517 9.19485094,0.0818965517 C4.17632264,0.0818965517 0.0934358491,4.25174138 0.0934358491,9.37715517 C0.0934358491,14.502569 4.17632264,18.6724138 9.19485094,18.6724138 C9.19966226,18.6724138 9.20383208,18.6720862 9.20832264,18.6720862 L9.20832264,17.3617414 C9.20383208,17.3617414 9.19966226,17.362069 9.19485094,17.362069" id="Fill-1" fill="#F17EAD" mask="url(#mask-2)"></path>
            </g>
            <g id="Group-6" transform="translate(10.584906, 3.193966)">
                <mask id="mask-4" fill="white">
                    <use xlink:href="#path-3"></use>
                </mask>
                <g id="Clip-5"></g>
                <path d="M6.30805849,11.5055155 C3.56720943,11.5055155 1.33732264,9.22813621 1.33732264,6.42891207 C1.33732264,3.62968793 3.56720943,1.35230862 6.30805849,1.35230862 C6.31286981,1.35230862 6.31703962,1.35296379 6.32153019,1.35296379 L6.32153019,0.0426189655 C6.31703962,0.0426189655 6.31286981,0.0419637931 6.30805849,0.0419637931 C2.85962453,0.0419637931 0.0543037736,2.90703276 0.0543037736,6.42891207 C0.0543037736,9.95079138 2.85962453,12.8158603 6.30805849,12.8158603 C6.31286981,12.8158603 6.31703962,12.8152052 6.32153019,12.8152052 L6.32153019,11.5048603 C6.31703962,11.5048603 6.31286981,11.5055155 6.30805849,11.5055155" id="Fill-4" fill="#F17EAD" mask="url(#mask-4)"></path>
            </g>
            <g id="Group-9" transform="translate(13.150943, 5.814655)">
                <mask id="mask-6" fill="white">
                    <use xlink:href="#path-5"></use>
                </mask>
                <g id="Clip-8"></g>
                <path d="M3.74202075,6.06578276 C2.52315283,6.06578276 1.5317,5.05288621 1.5317,3.80805862 C1.5317,2.56355862 2.52315283,1.55066207 3.74202075,1.55066207 C3.74683208,1.55066207 3.75100189,1.55131724 3.75549245,1.55131724 L3.75549245,0.240972414 C3.75100189,0.240972414 3.74683208,0.240317241 3.74202075,0.240317241 C1.81588868,0.240317241 0.248681132,1.84090345 0.248681132,3.80805862 C0.248681132,5.77554138 1.81588868,7.37612759 3.74202075,7.37612759 C3.74683208,7.37612759 3.75100189,7.37547241 3.75549245,7.37547241 L3.75549245,6.06512759 C3.75100189,6.06512759 3.74683208,6.06578276 3.74202075,6.06578276" id="Fill-7" fill="#F17EAD" mask="url(#mask-6)"></path>
            </g>
            <path d="M9.08803962,9.62284483 C9.08803962,4.50168966 5.01253019,0.33512069 9.62264151e-05,0.327913793 L9.62264151e-05,1.63825862 C4.30494528,1.64546552 7.80502075,5.22467241 7.80502075,9.62284483 C7.80502075,14.0210172 4.30494528,17.6002241 9.62264151e-05,17.607431 L9.62264151e-05,18.9177759 C5.01253019,18.910569 9.08803962,14.744 9.08803962,9.62284483" id="Fill-10" fill="#F17EAD"></path>
            <path d="M6.24041132,9.62284483 C6.24041132,6.10587931 3.44214717,3.24408621 0.000128301887,3.23655172 L0.000128301887,4.54689655 C2.73456226,4.55443103 4.95739245,6.8282069 4.95739245,9.62284483 C4.95739245,12.4174828 2.73456226,14.6912586 0.000128301887,14.6987931 L0.000128301887,16.0091379 C3.44214717,16.0016034 6.24041132,13.1398103 6.24041132,9.62284483" id="Fill-12" fill="#F17EAD"></path>
            <g id="Group-16" transform="translate(0.000000, 5.814655)" fill="#F17EAD">
                <path d="M3.4801566,3.80818966 C3.4801566,1.8452931 1.92032642,0.248637931 -3.20754717e-05,0.240775862 L-3.20754717e-05,1.55112069 C1.21274151,1.55898276 2.19713774,2.56827586 2.19713774,3.80818966 C2.19713774,5.04810345 1.21274151,6.05739655 -3.20754717e-05,6.06525862 L-3.20754717e-05,7.37560345 C1.92032642,7.36774138 3.4801566,5.77108621 3.4801566,3.80818966" id="Fill-14"></path>
            </g>
        </g>
    </g>
</svg>